# xmcd CD database file
#
# Track frame offsets:
#	150
#	14122
#	28516
#	41778
#	54713
#	66496
#	80286
#	91476
#	105246
#	118152
#	129297
#	143677
#	157712
#	171595
#	186287
#	200734
#	215424
#	228159
#	241794
#	256259
#	268966
#	282594
#
# Disc length: 3925 seconds
#
# Revision: 0
# Processed by: cddbd v1.5.2PL0 Copyright (c) Steve Scherf et al.
# Submitted via: CDex 1.70beta2
#
DISCID=430f5316
DTITLE=Ella Fitzgerald - A-Tisket, A-Tasket
DYEAR=1900
DGENRE=Jazz
TTITLE0=BEI MIR BIST DU SCHON
TTITLE1=DEDICATED TO YOU
TTITLE2=IT'S MY TURN NOW
TTITLE3=ORGAN GRINDER'S SWING
TTITLE4=A-TISKET, A-TASKET
TTITLE5=WHAT DO YOU KNOW ABOUT LOVE
TTITLE6=OH, YES, TAKE ANOTHER GUESS
TTITLE7=YOU CAN'T BE MINE
TTITLE8=WOE IS ME
TTITLE9=VOTE FOR ME MR. RHYTHM
TTITLE10=I LET A TEAR FALL IN THE RIVER
TTITLE11=DARKTOWN STRUTTERS' BALL
TTITLE12=WACKY DUST
TTITLE13=UNDECIDED
TTITLE14=IF YOU SHOULD EVER LEAVE
TTITLE15=DEEP IN THE HEART OF THE SOUT
TTITLE16=SAVING MYSELF FOR YOU
TTITLE17='TAIN'T WHAT YOU DO
TTITLE18=ROCK IT FOR ME
TTITLE19=IF YOU ONLY KNEW
TTITLE20=I LOVE EACH MOVE YOU MAKE
TTITLE21=I FOUND MY YELLOW BASKET
EXTD=
EXTT0=
EXTT1=
EXTT2=
EXTT3=
EXTT4=
EXTT5=
EXTT6=
EXTT7=
EXTT8=
EXTT9=
EXTT10=
EXTT11=
EXTT12=
EXTT13=
EXTT14=
EXTT15=
EXTT16=
EXTT17=
EXTT18=
EXTT19=
EXTT20=
EXTT21=
PLAYORDER=
